<?xml version="1.0" standalone="no"?>
<!DOCTYPE svg PUBLIC "-//W3C//DTD SVG 20010904//EN"
 "http://www.w3.org/TR/2001/REC-SVG-20010904/DTD/svg10.dtd">
<svg version="1.0" xmlns="http://www.w3.org/2000/svg"
 width="742.000000pt" height="742.000000pt" viewBox="0 0 742.000000 742.000000"
 preserveAspectRatio="xMidYMid meet">
<metadata>
Created by potrace 1.11, written by Peter Selinger 2001-2013
</metadata>
<g transform="translate(0.000000,742.000000) scale(0.100000,-0.100000)"
fill="#000000" stroke="none">
<path d="M0 3710 l0 -3700 3705 0 3705 0 0 3700 0 3700 -3705 0 -3705 0 0
-3700z m4424 1327 c15 -11 85 -253 86 -298 0 -11 -39 -35 -116 -72 -202 -99
-366 -216 -516 -369 -54 -55 -98 -102 -98 -106 0 -4 4 -13 9 -21 8 -12 26 -9
109 22 111 41 164 46 257 22 181 -47 302 -172 352 -365 21 -84 21 -287 0 -386
-42 -186 -106 -305 -236 -435 -84 -83 -109 -102 -201 -147 -58 -29 -150 -64
-205 -79 -91 -24 -117 -27 -290 -27 -188 -1 -191 -1 -277 30 -290 104 -433
362 -415 748 10 196 51 355 140 531 199 398 625 724 1196 916 156 52 178 56
205 36z m-1494 -214 c0 -3 -41 -153 -90 -332 l-91 -326 -43 -40 -43 -40 -149
12 c-82 6 -226 12 -319 12 l-170 1 -24 -90 c-13 -50 -22 -92 -20 -94 2 -2 62
-16 132 -30 152 -32 285 -75 382 -123 97 -49 194 -148 225 -228 31 -82 38
-216 15 -304 -75 -291 -392 -571 -796 -705 -156 -52 -239 -67 -404 -73 -137
-5 -155 -3 -207 17 -117 44 -158 128 -165 340 l-5 135 51 48 51 48 37 -19 c67
-34 143 -46 278 -47 141 0 208 12 290 52 91 45 135 101 135 171 0 111 -132
178 -435 219 -178 24 -170 2 -106 290 48 222 134 656 161 820 7 42 18 77 28
86 14 12 90 17 397 26 412 13 432 14 488 43 32 16 88 78 99 108 2 8 90 17 276
29 12 0 22 -2 22 -6z m2863 -107 c95 -26 165 -65 233 -128 100 -94 162 -214
195 -383 20 -101 17 -413 -5 -532 -86 -469 -313 -758 -683 -869 -119 -36 -332
-45 -449 -19 -336 73 -501 357 -481 829 16 367 116 638 312 845 138 145 290
228 490 267 91 17 309 12 388 -10z"/>
<path d="M3670 3773 c-14 -3 -50 -16 -81 -29 l-55 -25 -17 -102 c-20 -116 -21
-172 -7 -246 24 -125 66 -164 172 -159 75 4 107 21 146 78 36 54 46 107 47
245 0 112 -3 135 -21 170 -32 62 -91 84 -184 68z"/>
<path d="M5314 4000 c-192 -24 -286 -113 -287 -270 -1 -169 111 -240 383 -240
172 0 278 29 337 92 65 69 84 206 40 289 -28 53 -100 100 -179 117 -77 17
-212 22 -294 12z"/>
</g>
</svg>
